<svg width="18" height="18" viewBox="0 0 18 18" fill="none" xmlns="http://www.w3.org/2000/svg">
<g clip-path="url(#clip0_12_163)">
<path d="M12.75 1.5H5.25C3.17893 1.5 1.5 3.17893 1.5 5.25V12.75C1.5 14.8211 3.17893 16.5 5.25 16.5H12.75C14.8211 16.5 16.5 14.8211 16.5 12.75V5.25C16.5 3.17893 14.8211 1.5 12.75 1.5Z" stroke="white" stroke-width="2" stroke-linecap="round" stroke-linejoin="round"/>
<path d="M12.0003 8.52773C12.0928 9.15191 11.9862 9.78939 11.6956 10.3495C11.405 10.9096 10.9451 11.3638 10.3815 11.6475C9.81785 11.9312 9.1791 12.0299 8.55611 11.9297C7.93311 11.8294 7.35759 11.5353 6.9114 11.0891C6.46521 10.6429 6.17107 10.0674 6.07082 9.44439C5.97057 8.82139 6.06932 8.18265 6.35301 7.61901C6.63671 7.05537 7.09091 6.59553 7.65101 6.30491C8.21111 6.01428 8.84858 5.90767 9.47277 6.00023C10.1095 6.09464 10.6989 6.39132 11.154 6.84646C11.6092 7.30159 11.9059 7.89103 12.0003 8.52773Z" stroke="white" stroke-width="2" stroke-linecap="round" stroke-linejoin="round"/>
<path d="M13.125 4.875H13.1324" stroke="white" stroke-width="2" stroke-linecap="round" stroke-linejoin="round"/>
</g>
<defs>
<clipPath id="clip0_12_163">
<rect width="18" height="18" fill="white"/>
</clipPath>
</defs>
</svg>
