<svg width="655" height="51" viewBox="0 0 655 51" fill="none" xmlns="http://www.w3.org/2000/svg">
<path d="M9.816 50.424C8.32267 50.424 6.936 50.104 5.656 49.464C4.41867 48.824 3.352 47.9707 2.456 46.904C1.56 45.88 0.941333 44.7707 0.6 43.576C0.557333 43.32 0.493333 43.064 0.408 42.808C0.365333 42.5093 0.344 42.2107 0.344 41.912C0.344 40.5893 0.685333 39.352 1.368 38.2C2.09333 37.048 2.92533 36.1947 3.864 35.64C4.46133 35.2987 4.888 35.128 5.144 35.128C5.48533 35.128 5.656 35.384 5.656 35.896C5.656 36.4933 5.48533 37.368 5.144 38.52C4.80267 39.672 4.632 40.7387 4.632 41.72C4.632 43.256 5.144 44.6 6.168 45.752C7.23467 46.904 8.408 47.48 9.688 47.48C10.3707 47.48 11.032 47.288 11.672 46.904C13.208 45.88 14.552 44.5787 15.704 43C16.856 41.464 17.9227 39.416 18.904 36.856C19.8853 34.2533 20.888 30.9467 21.912 26.936C22.424 24.9733 22.8293 23.16 23.128 21.496C23.4267 19.7893 23.704 18.0827 23.96 16.376C24.2587 14.6693 24.6 12.856 24.984 10.936C23.064 11.2347 21.272 11.5333 19.608 11.832C17.944 12.1307 16.5787 12.3653 15.512 12.536C14.488 12.664 13.912 12.7067 13.784 12.664C13.3147 12.408 13.08 11.8533 13.08 11C13.08 10.1467 13.3147 9.29333 13.784 8.44C14.296 7.58667 14.9147 7.16 15.64 7.16C16.2373 7.16 16.7067 7.37333 17.048 7.8C17.3893 8.184 17.9227 8.376 18.648 8.376C18.776 8.376 18.904 8.376 19.032 8.376C19.16 8.33333 19.3093 8.29066 19.48 8.248C19.9493 8.12 20.8667 8.01333 22.232 7.928C23.5973 7.84267 25.1547 7.77867 26.904 7.736C27.544 7.26667 28.2267 6.94666 28.952 6.776C29.6773 6.60533 30.3813 6.52 31.064 6.52C32.6427 6.52 33.6027 6.84 33.944 7.48C34.6693 7.48 35.352 7.48 35.992 7.48C36.632 7.43733 37.2293 7.416 37.784 7.416C38.7653 7.416 39.576 7.43733 40.216 7.48C40.8987 7.48 41.304 7.52267 41.432 7.608C41.7733 7.736 42.008 7.88533 42.136 8.056C42.264 8.22666 42.328 8.376 42.328 8.504C42.328 8.84533 42.136 9.12267 41.752 9.336C41.368 9.54933 41.1333 9.57066 41.048 9.4C41.048 9.18666 40.5787 9.08 39.64 9.08C38.9573 9.08 38.0827 9.144 37.016 9.272C35.9493 9.35733 34.7547 9.48533 33.432 9.656C32.7493 11.7893 31.9173 14.3493 30.936 17.336C29.9973 20.3227 28.6747 23.8853 26.968 28.024C25.9013 30.584 24.856 33.08 23.832 35.512C22.8507 37.9013 21.8053 40.0987 20.696 42.104C19.6293 44.1093 18.4347 45.7947 17.112 47.16C15.7893 48.5253 14.296 49.464 12.632 49.976C11.736 50.2747 10.7973 50.424 9.816 50.424ZM63.642 44.024C63.2153 44.024 63.066 43.6187 63.194 42.808C63.4073 41.5707 63.5567 40.3333 63.642 39.096C63.77 37.816 63.834 36.7067 63.834 35.768C63.834 34.872 63.77 34.1467 63.642 33.592C63.5567 32.9947 63.3647 32.696 63.066 32.696C62.938 32.696 62.746 32.76 62.49 32.888C62.2767 33.016 61.8927 33.272 61.338 33.656C60.3993 34.3387 59.1833 35.0853 57.69 35.896C56.2393 36.7067 54.6607 37.5173 52.954 38.328C51.2473 39.1387 49.5833 39.9067 47.962 40.632C46.3407 41.3573 44.89 42.0187 43.61 42.616C42.8847 42.9147 42.0527 43.064 41.114 43.064C40.0473 43.064 39.066 42.8933 38.17 42.552C37.3167 42.168 36.89 41.592 36.89 40.824C36.89 39.7573 37.274 38.328 38.042 36.536C38.81 34.744 39.9833 32.8027 41.562 30.712C43.1407 28.5787 45.1033 26.5307 47.45 24.568C49.0287 23.2453 50.6927 22.2 52.442 21.432C54.1913 20.664 56.09 20.28 58.138 20.28C59.2047 20.28 60.3353 20.408 61.53 20.664C62.7247 20.92 63.7273 21.3467 64.538 21.944C65.3913 22.5413 65.818 23.3733 65.818 24.44C65.818 25.208 65.626 25.7627 65.242 26.104C64.9007 26.4027 64.538 26.552 64.154 26.552C63.642 26.552 63.002 26.3387 62.234 25.912C61.5087 25.4853 60.5273 25.272 59.29 25.272C58.394 25.272 57.4767 25.4213 56.538 25.72C55.5993 25.976 54.554 26.424 53.402 27.064C51.4393 28.1733 49.69 29.3893 48.154 30.712C46.618 31.992 45.402 33.2507 44.506 34.488C43.6527 35.7253 43.226 36.792 43.226 37.688C43.226 38.328 43.4393 38.84 43.866 39.224C44.3353 39.608 44.9113 39.8 45.594 39.8C46.6607 39.8 47.898 39.48 49.306 38.84C50.714 38.1573 52.058 37.4747 53.338 36.792C55.9833 35.384 57.9887 34.1893 59.354 33.208C60.762 32.2267 61.8287 31.4587 62.554 30.904C63.322 30.3067 64.0473 29.9013 64.73 29.688C64.858 29.6453 65.0927 29.624 65.434 29.624C66.1167 29.624 66.8633 29.7733 67.674 30.072C68.5273 30.328 68.9327 30.584 68.89 30.84C68.89 31.608 68.634 32.504 68.122 33.528C67.61 34.5093 67.1833 35.6827 66.842 37.048C66.6287 37.9867 66.4793 38.84 66.394 39.608C66.3513 40.3333 66.138 41.3147 65.754 42.552C65.7113 42.7227 65.434 43 64.922 43.384C64.41 43.8107 63.9833 44.024 63.642 44.024ZM81.4725 42.936C80.4912 42.936 79.4458 42.7867 78.3365 42.488C77.2272 42.1893 76.2245 41.8267 75.3285 41.4C74.4752 40.9733 73.8778 40.5893 73.5365 40.248C72.1285 38.6267 71.4245 36.6427 71.4245 34.296C71.4245 31.352 72.4912 28.28 74.6245 25.08C77.1845 21.368 80.7045 19.512 85.1845 19.512C87.1472 19.512 88.7685 19.7467 90.0485 20.216C91.3712 20.6853 92.4165 21.2613 93.1845 21.944C93.9525 22.6267 94.4858 23.288 94.7845 23.928C95.1258 24.568 95.2965 25.0373 95.2965 25.336C95.2965 26.2747 94.8912 26.744 94.0805 26.744C93.1845 26.744 92.7365 26.5947 92.7365 26.296C92.7365 26.2107 92.7578 26.104 92.8005 25.976C92.8858 25.8053 92.9285 25.656 92.9285 25.528C92.9285 25.3147 92.7578 25.0373 92.4165 24.696C92.1178 24.312 91.8405 24.0347 91.5845 23.864C90.6458 23.1387 89.4725 22.776 88.0645 22.776C86.8698 22.776 85.6112 23.1173 84.2885 23.8C83.0085 24.4827 81.7498 25.6347 80.5125 27.256C79.1045 29.0907 78.0592 30.84 77.3765 32.504C76.6938 34.168 76.3525 35.64 76.3525 36.92C76.3525 38.456 76.8218 39.5867 77.7605 40.312C78.7418 41.0373 80.5552 41.4 83.2005 41.4C84.4805 41.4 85.9098 41.2507 87.4885 40.952C89.1098 40.6107 90.7525 40.0987 92.4165 39.416C94.7632 38.4347 97.0032 37.0693 99.1365 35.32C99.7338 34.8507 100.161 34.616 100.417 34.616C100.673 34.616 100.801 34.7653 100.801 35.064C100.801 35.5333 100.545 36.0027 100.033 36.472C98.3258 38.1787 95.8938 39.6933 92.7365 41.016C89.5792 42.296 85.8245 42.936 81.4725 42.936ZM106.884 43.128C104.879 43.128 103.215 42.744 101.892 41.976C100.569 41.1653 99.5667 40.1413 98.884 38.904C98.244 37.6667 97.924 36.4293 97.924 35.192C97.924 33.784 98.308 32.44 99.076 31.16C99.844 29.8373 100.847 28.6427 102.084 27.576C103.364 26.5093 104.687 25.6773 106.052 25.08C106.735 24.7813 107.332 24.568 107.844 24.44C108.399 24.2693 108.996 24.184 109.636 24.184C110.404 24.184 111.321 24.2907 112.388 24.504C113.497 24.6747 114.564 24.9733 115.588 25.4C116.612 25.784 117.359 26.3387 117.828 27.064C117.956 27.2773 118.383 27.512 119.108 27.768C119.833 28.024 120.644 28.344 121.54 28.728C122.436 29.112 123.204 29.624 123.844 30.264C124.527 30.8613 124.868 31.6507 124.868 32.632C124.868 33.8267 124.271 35.0427 123.076 36.28C121.881 37.5173 120.345 38.6693 118.468 39.736C116.591 40.76 114.628 41.592 112.58 42.232C110.532 42.8293 108.633 43.128 106.884 43.128ZM106.436 41.08C107.673 41.08 109.039 40.8667 110.532 40.44C112.025 40.0133 113.455 39.4373 114.82 38.712C116.185 37.9867 117.295 37.176 118.148 36.28C119.044 35.3413 119.492 34.3813 119.492 33.4C119.492 32.632 119.193 32.0347 118.596 31.608C118.041 31.1387 117.337 30.7547 116.484 30.456C116.185 30.3707 115.78 30.4133 115.268 30.584C114.756 30.712 114.159 30.776 113.476 30.776C112.665 30.776 111.812 30.4987 110.916 29.944C110.02 29.3893 109.572 28.7067 109.572 27.896C109.572 27.64 109.593 27.4053 109.636 27.192C109.679 26.9787 109.721 26.808 109.764 26.68C108.228 27.0213 106.756 27.6613 105.348 28.6C103.983 29.5387 102.852 30.6693 101.956 31.992C101.06 33.3147 100.612 34.7653 100.612 36.344C100.612 37.9227 101.188 39.1173 102.34 39.928C103.535 40.696 104.9 41.08 106.436 41.08ZM129.76 44.792C129.546 44.792 129.376 44.6 129.248 44.216C129.162 43.9173 129.056 43.4053 128.928 42.68C128.842 41.9547 128.799 41.1013 128.799 40.12C128.799 38.712 128.885 37.176 129.056 35.512C129.226 33.8053 129.397 32.1627 129.568 30.584C129.61 30.4133 129.397 30.3707 128.928 30.456C128.458 30.5413 128.053 30.584 127.712 30.584C127.37 30.584 127.2 30.52 127.2 30.392C127.2 30.2213 127.456 29.9653 127.968 29.624C128.522 29.24 129.056 28.8773 129.568 28.536C130.122 28.152 130.421 27.8747 130.464 27.704C130.89 26.168 131.36 24.568 131.872 22.904C132.384 21.1973 132.874 19.5973 133.344 18.104C133.856 16.568 134.304 15.288 134.688 14.264C135.072 13.24 135.328 12.6427 135.456 12.472C136.053 11.6187 136.821 10.9147 137.76 10.36C138.698 9.76266 139.466 9.464 140.064 9.464C140.533 9.464 140.768 9.67733 140.768 10.104C140.768 10.36 140.64 10.7227 140.384 11.192C139.872 12.088 139.36 13.2827 138.848 14.776C138.336 16.2267 137.845 17.784 137.376 19.448C136.906 21.0693 136.501 22.584 136.16 23.992C135.818 25.4 135.562 26.4667 135.392 27.192C137.013 25.6987 138.762 24.568 140.64 23.8C142.56 22.9893 144.906 22.584 147.68 22.584C151.648 22.584 154.741 23.2453 156.96 24.568C159.178 25.8907 160.288 27.448 160.288 29.24C160.288 30.52 159.626 31.9707 158.304 33.592C156.981 35.1707 154.805 36.856 151.776 38.648C150.453 39.4587 148.832 40.2693 146.912 41.08C144.992 41.848 142.965 42.488 140.832 43C138.698 43.5547 136.629 43.832 134.624 43.832C133.984 43.832 133.514 43.64 133.216 43.256C132.96 42.872 132.746 42.488 132.576 42.104C132.405 41.72 132.106 41.528 131.68 41.528C131.509 41.528 131.296 41.8053 131.04 42.36C130.826 42.9147 130.613 43.448 130.4 43.96C130.186 44.5147 129.973 44.792 129.76 44.792ZM135.776 41.656C136.757 41.656 137.952 41.4 139.36 40.888C140.768 40.376 142.218 39.6933 143.712 38.84C145.248 37.944 146.634 36.984 147.872 35.96C149.365 34.7227 150.496 33.3787 151.264 31.928C152.032 30.4773 152.416 29.1973 152.416 28.088C152.416 27.064 152.096 26.296 151.456 25.784C150.816 25.2293 149.408 24.952 147.232 24.952C145.653 24.952 143.946 25.2293 142.112 25.784C140.277 26.296 138.613 26.9573 137.12 27.768C135.626 28.536 134.581 29.3253 133.984 30.136C133.642 31.032 133.344 32.0773 133.088 33.272C132.832 34.4667 132.704 35.6187 132.704 36.728C132.704 38.0507 132.917 39.2027 133.344 40.184C133.813 41.1653 134.624 41.656 135.776 41.656ZM182.438 46.2C182.139 46.2 181.861 46.072 181.605 45.816C181.307 45.56 181.157 45.1973 181.157 44.728C181.157 44.3867 181.264 43.96 181.477 43.448C181.691 42.936 182.075 42.3813 182.63 41.784C183.611 39.608 184.528 37.8373 185.382 36.472C186.278 35.1067 187.28 33.6347 188.39 32.056C187.835 31.9707 187.43 31.7787 187.174 31.48C186.918 31.1387 186.79 30.7547 186.79 30.328C186.79 29.6453 186.982 29.0053 187.366 28.408C187.792 27.768 188.176 27.448 188.518 27.448C189.03 27.448 189.563 27.384 190.118 27.256C190.715 27.128 191.312 27.064 191.91 27.064C193.446 24.8453 194.683 23.0107 195.622 21.56C196.603 20.1093 197.392 18.936 197.99 18.04C198.587 17.144 199.099 16.3973 199.526 15.8C199.995 15.2027 200.464 14.648 200.934 14.136C201.403 13.5813 201.979 12.9413 202.662 12.216C203.344 11.4907 204.24 10.5733 205.35 9.464C204.795 8.312 204.518 7.18133 204.518 6.072C204.518 4.536 204.966 3.27733 205.862 2.296C206.758 1.31466 207.696 0.823997 208.678 0.823997C209.19 0.823997 209.659 0.973331 210.086 1.272C210.555 1.528 210.939 1.99733 211.238 2.68C212.432 5.41066 213.264 8.888 213.734 13.112C214.246 17.336 214.587 21.816 214.757 26.552C217.958 26.808 220.176 27.384 221.414 28.28C220.859 28.4507 220.006 28.6427 218.854 28.856C217.702 29.0267 216.336 29.2187 214.757 29.432C214.757 31.1387 214.779 32.8667 214.822 34.616C214.864 36.3653 214.886 38.0933 214.886 39.8C214.886 42.1893 214.694 43.8533 214.31 44.792C213.968 45.7307 213.627 46.2 213.286 46.2C212.816 46.2 212.582 45.7733 212.582 44.92C212.582 42.0613 212.454 39.3947 212.198 36.92C211.942 34.4027 211.579 32.056 211.11 29.88C209.019 30.0933 206.8 30.328 204.454 30.584C202.15 30.7973 199.846 31.0107 197.542 31.224C195.238 31.4373 193.104 31.6507 191.142 31.864C189.776 33.9973 188.411 36.2373 187.046 38.584C185.723 40.9307 184.443 43.32 183.206 45.752C183.078 46.0507 182.822 46.2 182.438 46.2ZM194.598 26.808C197.115 26.5947 199.76 26.4667 202.534 26.424C205.307 26.3387 207.931 26.296 210.406 26.296C209.68 23.2667 208.891 20.6 208.038 18.296C207.227 15.9493 206.587 13.944 206.118 12.28C205.008 13.3893 203.408 15.2027 201.318 17.72C199.27 20.2373 197.03 23.2667 194.598 26.808ZM222.447 44.792C222.234 44.792 222.063 44.6 221.935 44.216C221.85 43.9173 221.743 43.4053 221.615 42.68C221.53 41.9547 221.487 41.1013 221.487 40.12C221.487 38.712 221.572 37.176 221.743 35.512C221.914 33.8053 222.084 32.1627 222.255 30.584C222.298 30.4133 222.084 30.3707 221.615 30.456C221.146 30.5413 220.74 30.584 220.399 30.584C220.058 30.584 219.887 30.52 219.887 30.392C219.887 30.2213 220.143 29.9653 220.655 29.624C221.21 29.24 221.743 28.8773 222.255 28.536C222.81 28.152 223.108 27.8747 223.151 27.704C223.578 26.168 224.047 24.568 224.559 22.904C225.071 21.1973 225.562 19.5973 226.031 18.104C226.543 16.568 226.991 15.288 227.375 14.264C227.759 13.24 228.015 12.6427 228.143 12.472C228.74 11.6187 229.508 10.9147 230.447 10.36C231.386 9.76266 232.154 9.464 232.751 9.464C233.22 9.464 233.455 9.67733 233.455 10.104C233.455 10.36 233.327 10.7227 233.071 11.192C232.559 12.088 232.047 13.2827 231.535 14.776C231.023 16.2267 230.532 17.784 230.063 19.448C229.594 21.0693 229.188 22.584 228.847 23.992C228.506 25.4 228.25 26.4667 228.079 27.192C229.7 25.6987 231.45 24.568 233.327 23.8C235.247 22.9893 237.594 22.584 240.367 22.584C244.335 22.584 247.428 23.2453 249.647 24.568C251.866 25.8907 252.975 27.448 252.975 29.24C252.975 30.52 252.314 31.9707 250.991 33.592C249.668 35.1707 247.492 36.856 244.463 38.648C243.14 39.4587 241.519 40.2693 239.599 41.08C237.679 41.848 235.652 42.488 233.519 43C231.386 43.5547 229.316 43.832 227.311 43.832C226.671 43.832 226.202 43.64 225.903 43.256C225.647 42.872 225.434 42.488 225.263 42.104C225.092 41.72 224.794 41.528 224.367 41.528C224.196 41.528 223.983 41.8053 223.727 42.36C223.514 42.9147 223.3 43.448 223.087 43.96C222.874 44.5147 222.66 44.792 222.447 44.792ZM228.463 41.656C229.444 41.656 230.639 41.4 232.047 40.888C233.455 40.376 234.906 39.6933 236.399 38.84C237.935 37.944 239.322 36.984 240.559 35.96C242.052 34.7227 243.183 33.3787 243.951 31.928C244.719 30.4773 245.103 29.1973 245.103 28.088C245.103 27.064 244.783 26.296 244.143 25.784C243.503 25.2293 242.095 24.952 239.919 24.952C238.34 24.952 236.634 25.2293 234.799 25.784C232.964 26.296 231.3 26.9573 229.807 27.768C228.314 28.536 227.268 29.3253 226.671 30.136C226.33 31.032 226.031 32.0773 225.775 33.272C225.519 34.4667 225.391 35.6187 225.391 36.728C225.391 38.0507 225.604 39.2027 226.031 40.184C226.5 41.1653 227.311 41.656 228.463 41.656ZM258.401 41.336C257.633 41.336 257.27 41.0587 257.313 40.504C257.526 39.4373 257.697 38.136 257.825 36.6C257.996 35.0213 258.081 33.5067 258.081 32.056C258.081 30.6053 257.953 29.368 257.697 28.344C257.484 27.2773 257.057 26.744 256.417 26.744C255.478 26.7013 255.009 26.5093 255.009 26.168C255.009 25.912 255.244 25.6773 255.713 25.464C256.353 25.1227 257.078 24.824 257.889 24.568C258.7 24.312 259.51 24.184 260.321 24.184C260.79 24.184 261.26 24.248 261.729 24.376C262.198 24.4613 262.646 24.632 263.073 24.888C263.585 25.1867 263.905 25.6347 264.033 26.232C264.204 26.8293 264.31 27.3627 264.353 27.832C264.438 28.344 264.481 28.6 264.481 28.6C264.566 28.6 264.652 28.4933 264.737 28.28C264.865 28.0667 264.972 27.896 265.057 27.768C265.953 26.4027 267.062 25.0587 268.385 23.736C269.75 22.3707 271.18 21.24 272.673 20.344C274.166 19.4053 275.51 18.936 276.705 18.936C278.028 18.936 279.009 19.3627 279.649 20.216C280.289 21.0693 280.609 21.88 280.609 22.648C280.609 23.6293 280.161 24.12 279.265 24.12C278.582 24.12 278.092 23.9493 277.793 23.608C277.537 23.224 277.26 22.8613 276.961 22.52C276.705 22.1787 276.257 22.008 275.617 22.008C274.508 22.008 273.377 22.4347 272.225 23.288C271.073 24.0987 270.092 24.9947 269.281 25.976C267.958 27.5547 266.849 29.432 265.953 31.608C265.1 33.7413 264.524 35.832 264.225 37.88C264.14 38.4773 263.734 39.0533 263.009 39.608C262.326 40.12 261.537 40.5467 260.641 40.888C259.788 41.1867 259.041 41.336 258.401 41.336ZM304.455 44.024C304.028 44.024 303.879 43.6187 304.007 42.808C304.22 41.5707 304.369 40.3333 304.455 39.096C304.583 37.816 304.647 36.7067 304.647 35.768C304.647 34.872 304.583 34.1467 304.455 33.592C304.369 32.9947 304.177 32.696 303.879 32.696C303.751 32.696 303.559 32.76 303.303 32.888C303.089 33.016 302.705 33.272 302.151 33.656C301.212 34.3387 299.996 35.0853 298.503 35.896C297.052 36.7067 295.473 37.5173 293.767 38.328C292.06 39.1387 290.396 39.9067 288.775 40.632C287.153 41.3573 285.703 42.0187 284.423 42.616C283.697 42.9147 282.865 43.064 281.927 43.064C280.86 43.064 279.879 42.8933 278.983 42.552C278.129 42.168 277.703 41.592 277.703 40.824C277.703 39.7573 278.087 38.328 278.855 36.536C279.623 34.744 280.796 32.8027 282.375 30.712C283.953 28.5787 285.916 26.5307 288.263 24.568C289.841 23.2453 291.505 22.2 293.255 21.432C295.004 20.664 296.903 20.28 298.951 20.28C300.017 20.28 301.148 20.408 302.343 20.664C303.537 20.92 304.54 21.3467 305.351 21.944C306.204 22.5413 306.631 23.3733 306.631 24.44C306.631 25.208 306.439 25.7627 306.055 26.104C305.713 26.4027 305.351 26.552 304.967 26.552C304.455 26.552 303.815 26.3387 303.047 25.912C302.321 25.4853 301.34 25.272 300.103 25.272C299.207 25.272 298.289 25.4213 297.351 25.72C296.412 25.976 295.367 26.424 294.215 27.064C292.252 28.1733 290.503 29.3893 288.967 30.712C287.431 31.992 286.215 33.2507 285.319 34.488C284.465 35.7253 284.039 36.792 284.039 37.688C284.039 38.328 284.252 38.84 284.679 39.224C285.148 39.608 285.724 39.8 286.407 39.8C287.473 39.8 288.711 39.48 290.119 38.84C291.527 38.1573 292.871 37.4747 294.151 36.792C296.796 35.384 298.801 34.1893 300.167 33.208C301.575 32.2267 302.641 31.4587 303.367 30.904C304.135 30.3067 304.86 29.9013 305.543 29.688C305.671 29.6453 305.905 29.624 306.247 29.624C306.929 29.624 307.676 29.7733 308.487 30.072C309.34 30.328 309.745 30.584 309.703 30.84C309.703 31.608 309.447 32.504 308.935 33.528C308.423 34.5093 307.996 35.6827 307.655 37.048C307.441 37.9867 307.292 38.84 307.207 39.608C307.164 40.3333 306.951 41.3147 306.567 42.552C306.524 42.7227 306.247 43 305.735 43.384C305.223 43.8107 304.796 44.024 304.455 44.024ZM315.501 43.256C314.818 43.256 314.072 42.8933 313.261 42.168C312.493 41.4427 312.109 40.504 312.109 39.352C312.109 37.3893 312.344 35.192 312.813 32.76C313.325 30.2853 314.008 27.7893 314.861 25.272C315.714 22.712 316.632 20.28 317.613 17.976C318.637 15.6293 319.661 13.5813 320.685 11.832C321.112 11.1067 321.73 10.5093 322.541 10.04C323.394 9.57066 324.312 9.22933 325.293 9.016C326.274 8.80267 327.149 8.696 327.917 8.696C328.941 8.696 329.581 8.824 329.837 9.08C330.136 9.29333 330.285 9.656 330.285 10.168C330.285 10.5947 330.157 11.1067 329.901 11.704C329.688 12.2587 329.197 13.0267 328.429 14.008C326.125 16.9093 324.333 19.704 323.053 22.392C321.773 25.08 320.877 27.4267 320.365 29.432C319.896 31.4373 319.661 32.9307 319.661 33.912C319.661 34.3387 319.682 34.616 319.725 34.744C319.853 34.5307 320.066 34.2533 320.365 33.912C320.664 33.5707 321.048 33.1867 321.517 32.76C322.541 31.8213 323.736 30.84 325.101 29.816C326.466 28.7493 327.96 27.8533 329.581 27.128C331.202 26.36 332.888 25.976 334.637 25.976C335.789 25.976 336.92 26.1467 338.029 26.488C339.138 26.7867 340.056 27.3413 340.781 28.152C341.549 28.92 341.933 30.008 341.933 31.416C341.933 32.1413 341.741 33.0587 341.357 34.168C341.016 35.2773 340.61 36.408 340.141 37.56C339.672 38.6693 339.266 39.6507 338.925 40.504C338.712 41.0587 338.349 41.528 337.837 41.912C337.368 42.2533 336.962 42.424 336.621 42.424C336.237 42.424 336.045 42.2747 336.045 41.976C336.045 41.8053 336.13 41.4853 336.301 41.016C336.856 39.2667 337.261 37.752 337.517 36.472C337.816 35.1493 337.965 33.9973 337.965 33.016C337.965 31.48 337.666 30.1573 337.069 29.048C336.514 27.9387 335.576 27.384 334.253 27.384C332.93 27.384 331.394 27.8747 329.645 28.856C327.938 29.8373 326.21 31.1173 324.461 32.696C322.754 34.232 321.197 35.8747 319.789 37.624C318.381 39.3733 317.357 40.9947 316.717 42.488C316.461 43 316.056 43.256 315.501 43.256ZM370.267 44.024C369.84 44.024 369.691 43.6187 369.819 42.808C370.032 41.5707 370.182 40.3333 370.267 39.096C370.395 37.816 370.459 36.7067 370.459 35.768C370.459 34.872 370.395 34.1467 370.267 33.592C370.182 32.9947 369.99 32.696 369.691 32.696C369.563 32.696 369.371 32.76 369.115 32.888C368.902 33.016 368.518 33.272 367.963 33.656C367.024 34.3387 365.808 35.0853 364.315 35.896C362.864 36.7067 361.286 37.5173 359.579 38.328C357.872 39.1387 356.208 39.9067 354.587 40.632C352.966 41.3573 351.515 42.0187 350.235 42.616C349.51 42.9147 348.678 43.064 347.739 43.064C346.672 43.064 345.691 42.8933 344.795 42.552C343.942 42.168 343.515 41.592 343.515 40.824C343.515 39.7573 343.899 38.328 344.667 36.536C345.435 34.744 346.608 32.8027 348.187 30.712C349.766 28.5787 351.728 26.5307 354.075 24.568C355.654 23.2453 357.318 22.2 359.067 21.432C360.816 20.664 362.715 20.28 364.763 20.28C365.83 20.28 366.96 20.408 368.155 20.664C369.35 20.92 370.352 21.3467 371.163 21.944C372.016 22.5413 372.443 23.3733 372.443 24.44C372.443 25.208 372.251 25.7627 371.867 26.104C371.526 26.4027 371.163 26.552 370.779 26.552C370.267 26.552 369.627 26.3387 368.859 25.912C368.134 25.4853 367.152 25.272 365.915 25.272C365.019 25.272 364.102 25.4213 363.163 25.72C362.224 25.976 361.179 26.424 360.027 27.064C358.064 28.1733 356.315 29.3893 354.779 30.712C353.243 31.992 352.027 33.2507 351.131 34.488C350.278 35.7253 349.851 36.792 349.851 37.688C349.851 38.328 350.064 38.84 350.491 39.224C350.96 39.608 351.536 39.8 352.219 39.8C353.286 39.8 354.523 39.48 355.931 38.84C357.339 38.1573 358.683 37.4747 359.963 36.792C362.608 35.384 364.614 34.1893 365.979 33.208C367.387 32.2267 368.454 31.4587 369.179 30.904C369.947 30.3067 370.672 29.9013 371.355 29.688C371.483 29.6453 371.718 29.624 372.059 29.624C372.742 29.624 373.488 29.7733 374.299 30.072C375.152 30.328 375.558 30.584 375.515 30.84C375.515 31.608 375.259 32.504 374.747 33.528C374.235 34.5093 373.808 35.6827 373.467 37.048C373.254 37.9867 373.104 38.84 373.019 39.608C372.976 40.3333 372.763 41.3147 372.379 42.552C372.336 42.7227 372.059 43 371.547 43.384C371.035 43.8107 370.608 44.024 370.267 44.024ZM380.994 43.384C380.866 43.384 380.588 43.256 380.161 43C379.735 42.7867 379.33 42.488 378.946 42.104C378.562 41.6773 378.391 41.2507 378.434 40.824C378.476 40.4827 378.391 40.248 378.178 40.12C377.964 39.9493 377.73 39.7147 377.474 39.416C377.26 39.1173 377.154 38.648 377.154 38.008C377.154 36.7707 377.41 35.3413 377.922 33.72C378.434 32.056 379.074 30.3067 379.842 28.472C380.61 26.6373 381.356 24.8453 382.082 23.096C382.295 22.5413 382.615 22.1573 383.042 21.944C383.468 21.7307 383.959 21.624 384.514 21.624C385.324 21.624 386.156 21.8373 387.01 22.264C387.863 22.6907 388.588 23.2453 389.186 23.928C389.783 24.6107 390.082 25.3147 390.082 26.04C390.082 26.5093 389.954 26.936 389.698 27.32C389.484 27.6613 389.186 28.1947 388.802 28.92C388.418 29.6027 388.098 30.2427 387.842 30.84C387.756 31.0533 387.65 31.288 387.522 31.544C387.436 31.7573 387.415 31.864 387.458 31.864C387.543 31.864 387.735 31.7147 388.034 31.416C388.332 31.0747 388.567 30.8187 388.738 30.648C389.676 29.752 390.743 28.8773 391.938 28.024C393.132 27.1707 394.327 26.4667 395.522 25.912C396.759 25.3147 397.868 25.016 398.85 25.016C399.874 25.016 400.684 25.3147 401.282 25.912C401.922 26.5093 402.242 27.384 402.242 28.536C402.242 29.3467 402.199 30.1573 402.114 30.968C402.071 31.736 402.05 32.4827 402.05 33.208C402.05 34.872 402.476 35.704 403.33 35.704C403.756 35.704 404.311 35.384 404.994 34.744C405.676 34.104 406.444 33.3147 407.298 32.376C408.194 31.3947 409.154 30.4347 410.178 29.496C411.202 28.5573 412.247 27.768 413.314 27.128C414.423 26.488 415.511 26.168 416.578 26.168C417.644 26.168 418.391 26.5307 418.818 27.256C419.244 27.9813 419.522 28.8987 419.65 30.008C419.82 31.1173 420.012 32.248 420.226 33.4C420.354 34.0827 420.503 34.744 420.674 35.384C420.887 35.9813 421.164 36.536 421.506 37.048C421.932 37.6453 422.146 38.136 422.146 38.52C422.146 38.776 422.039 38.904 421.826 38.904C421.484 38.904 420.972 38.5627 420.29 37.88C419.65 37.2827 419.138 36.6427 418.754 35.96C418.412 35.2347 418.135 34.5307 417.922 33.848C417.495 32.6107 417.196 31.5227 417.026 30.584C416.855 29.6027 416.471 29.112 415.874 29.112C415.191 29.112 414.38 29.432 413.442 30.072C412.503 30.6693 411.5 31.4373 410.434 32.376C409.41 33.272 408.343 34.1893 407.234 35.128C406.124 36.0667 405.058 36.856 404.034 37.496C403.01 38.136 402.05 38.4773 401.154 38.52C399.959 38.5627 398.999 38.4347 398.274 38.136C397.591 37.8373 397.1 37.1973 396.802 36.216C396.503 35.2347 396.354 33.7413 396.354 31.736C396.354 30.3707 396.482 29.3253 396.738 28.6C396.994 27.832 396.951 27.448 396.61 27.448C396.396 27.448 395.842 27.704 394.946 28.216C394.092 28.728 393.047 29.4747 391.81 30.456C390.615 31.4373 389.399 32.6107 388.162 33.976C386.924 35.3413 385.815 36.8987 384.834 38.648C384.151 39.8853 383.447 40.9947 382.722 41.976C382.039 42.9147 381.463 43.384 380.994 43.384ZM471 46.328C470.445 46.328 469.912 46.3067 469.4 46.264C468.888 46.264 468.376 46.2427 467.864 46.2C464.792 45.8587 462.019 45.0693 459.544 43.832C457.112 42.5947 455.171 40.9733 453.72 38.968C452.269 36.9627 451.544 34.68 451.544 32.12C451.544 30.456 451.885 28.728 452.568 26.936C453.507 24.5893 454.936 22.264 456.856 19.96C458.776 17.6133 461.443 15.416 464.856 13.368C468.312 11.2773 472.771 9.42133 478.232 7.8C481.048 6.94666 483.501 6.34933 485.592 6.008C487.683 5.66667 489.496 5.496 491.032 5.496C493.208 5.496 494.893 5.77333 496.088 6.328C497.325 6.84 498.264 7.48 498.904 8.248C499.587 8.97333 500.141 9.69867 500.568 10.424C500.739 10.7227 500.824 11.0853 500.824 11.512C500.824 12.28 500.589 13.0267 500.12 13.752C499.651 14.4773 499.224 14.84 498.84 14.84C498.413 14.84 498.2 14.3707 498.2 13.432C498.2 12.536 497.731 11.896 496.792 11.512C495.853 11.0853 494.616 10.872 493.08 10.872C491.373 10.872 489.411 11.1067 487.192 11.576C484.973 12.0027 482.733 12.5787 480.472 13.304C474.627 15.224 469.997 17.272 466.584 19.448C463.213 21.5813 460.803 23.736 459.352 25.912C457.901 28.0453 457.176 30.0933 457.176 32.056C457.176 34.1467 457.773 36.024 458.968 37.688C460.163 39.352 461.677 40.7173 463.512 41.784C465.347 42.808 467.203 43.4053 469.08 43.576C470.36 43.704 471.64 43.768 472.92 43.768C475.779 43.768 478.573 43.512 481.304 43C484.077 42.4453 486.595 41.6773 488.856 40.696C491.117 39.7147 492.909 38.5627 494.232 37.24C495.469 36.0027 496.451 35.128 497.176 34.616C497.944 34.104 498.477 33.848 498.776 33.848C499.032 33.848 499.16 33.976 499.16 34.232C499.16 34.9573 498.541 35.9387 497.304 37.176C495.939 38.584 494.232 39.864 492.184 41.016C490.136 42.1253 487.896 43.064 485.464 43.832C483.075 44.6427 480.621 45.2613 478.104 45.688C475.629 46.1147 473.261 46.328 471 46.328ZM510.446 44.472C508.739 44.472 507.139 44.152 505.646 43.512C504.152 42.9147 502.936 41.9547 501.998 40.632C501.23 39.5227 500.696 38.456 500.398 37.432C500.099 36.3653 499.95 35.3627 499.95 34.424C499.95 33.528 500.056 32.7173 500.27 31.992C500.483 31.224 500.739 30.6053 501.038 30.136C501.934 28.6 502.872 27.32 503.854 26.296C504.878 25.272 505.987 24.3547 507.182 23.544C508.76 22.52 510.702 22.008 513.006 22.008C513.859 22.008 514.755 22.3493 515.694 23.032C516.632 23.7147 517.998 24.4187 519.79 25.144C520.984 25.6133 522.094 26.168 523.118 26.808C524.184 27.4053 525.038 28.024 525.678 28.664C526.36 29.2613 526.702 29.8373 526.702 30.392C526.702 30.9893 526.211 31.48 525.23 31.864C523.822 32.3333 522.158 32.76 520.238 33.144C518.318 33.4853 516.398 33.7627 514.478 33.976C512.6 34.1893 510.936 34.296 509.486 34.296C508.376 34.296 507.523 34.232 506.926 34.104C506.67 35.0427 506.542 36.024 506.542 37.048C506.542 37.9013 506.67 38.7547 506.926 39.608C507.182 40.4613 507.608 41.2507 508.206 41.976C508.632 42.4453 509.102 42.7867 509.614 43C510.168 43.1707 510.723 43.256 511.278 43.256C512.216 43.256 513.134 43.1067 514.03 42.808C514.968 42.4667 515.779 42.1253 516.462 41.784C517.144 41.4 517.571 41.144 517.742 41.016C518.595 40.504 519.235 40.12 519.662 39.864C520.131 39.608 520.579 39.48 521.006 39.48C521.774 39.48 522.158 39.6507 522.158 39.992C522.158 40.2053 521.944 40.5253 521.518 40.952C521.091 41.336 520.344 41.784 519.278 42.296C517.912 42.9787 516.462 43.512 514.926 43.896C513.432 44.28 511.939 44.472 510.446 44.472ZM510.958 32.184C512.323 32.184 513.923 32.12 515.758 31.992C517.592 31.8213 519.576 31.544 521.71 31.16C522.904 30.904 523.502 30.5413 523.502 30.072C523.502 29.688 523.224 29.2827 522.67 28.856C522.158 28.3867 521.496 27.96 520.686 27.576C519.918 27.192 519.15 26.872 518.382 26.616C517.656 26.3173 517.102 26.168 516.718 26.168C514.883 26.168 513.304 26.552 511.982 27.32C510.702 28.088 509.592 29.0907 508.654 30.328C508.355 30.712 508.035 31.2667 507.694 31.992C508.419 32.12 509.507 32.184 510.958 32.184ZM530.931 43.384C530.76 43.384 530.462 43.256 530.035 43C529.608 42.7867 529.203 42.488 528.819 42.104C528.478 41.6773 528.307 41.2507 528.307 40.824C528.307 39.6293 528.499 38.1573 528.883 36.408C529.31 34.616 529.864 32.7387 530.547 30.776C531.23 28.7707 531.955 26.9147 532.723 25.208C533.064 24.4827 533.534 23.992 534.131 23.736C534.728 23.4373 535.368 23.288 536.051 23.288C537.032 23.288 537.95 23.544 538.803 24.056C539.656 24.568 540.083 25.2293 540.083 26.04C540.083 26.4667 539.934 26.8933 539.635 27.32C539.422 27.6187 539.166 28.0453 538.867 28.6C538.568 29.112 538.312 29.5813 538.099 30.008C537.843 30.52 537.779 30.776 537.907 30.776C537.95 30.776 538.163 30.584 538.547 30.2C539.4 29.3893 540.552 28.5573 542.003 27.704C543.496 26.808 545.032 26.0613 546.611 25.464C548.19 24.824 549.555 24.504 550.707 24.504C552.414 24.504 553.8 24.9947 554.867 25.976C555.976 26.9147 556.787 28.1307 557.299 29.624C557.811 31.1173 558.067 32.6533 558.067 34.232C558.067 37.048 557.427 39.288 556.147 40.952C555.976 41.208 555.635 41.5707 555.123 42.04C554.611 42.5093 554.227 42.744 553.971 42.744C553.843 42.744 553.779 42.6587 553.779 42.488C553.779 42.4027 553.779 42.3173 553.779 42.232C553.822 42.1467 553.864 42.04 553.907 41.912C554.248 40.9733 554.504 39.9493 554.675 38.84C554.888 37.7307 554.995 36.6213 554.995 35.512C554.995 34.104 554.782 32.7813 554.355 31.544C553.971 30.3067 553.288 29.304 552.307 28.536C551.368 27.768 550.067 27.384 548.403 27.384C545.8 27.384 543.539 28.1947 541.619 29.816C539.742 31.4373 537.864 33.6987 535.987 36.6C534.536 38.8187 533.448 40.504 532.723 41.656C531.998 42.808 531.4 43.384 530.931 43.384ZM569.557 44.664C569.215 44.664 568.789 44.5147 568.277 44.216C567.765 43.96 567.167 43.3627 566.485 42.424C565.93 41.656 565.503 40.5893 565.205 39.224C564.949 37.8587 564.821 36.4933 564.821 35.128C564.821 33.336 564.927 31.8427 565.141 30.648C565.354 29.4533 565.503 28.6853 565.589 28.344C564.949 27.7467 564.415 27.32 563.989 27.064C563.562 26.808 563.349 26.5093 563.349 26.168C563.349 25.5707 563.754 25.1013 564.565 24.76C565.418 24.376 566.357 24.1413 567.381 24.056C567.765 23.16 568.106 22.2 568.405 21.176C568.703 20.1093 569.002 19.1067 569.301 18.168C569.599 17.1867 569.919 16.4187 570.26 15.864C570.858 14.8827 571.775 14.2213 573.013 13.88C574.293 13.5387 575.509 13.368 576.661 13.368C577.813 13.368 578.73 13.496 579.413 13.752C580.138 13.9653 580.309 14.2213 579.925 14.52C579.242 14.9893 578.495 15.8 577.685 16.952C576.874 18.0613 576.085 19.2773 575.317 20.6C574.549 21.9227 573.845 23.1387 573.205 24.248H581.653C583.189 24.248 583.957 24.376 583.957 24.632C583.957 25.0587 583.018 25.3147 581.141 25.4C578.709 25.4427 576.917 25.5067 575.765 25.592C574.655 25.6773 573.866 25.7627 573.397 25.848C572.799 25.976 572.351 26.168 572.053 26.424C571.754 26.68 571.498 27.1067 571.285 27.704C570.559 29.5387 569.962 31.4587 569.493 33.464C569.066 35.4267 568.853 37.2187 568.853 38.84C568.853 40.0773 568.981 41.144 569.237 42.04C569.535 42.8933 569.962 43.4693 570.517 43.768C570.645 43.8107 570.709 43.896 570.709 44.024C570.709 44.152 570.602 44.28 570.389 44.408C570.175 44.5787 569.898 44.664 569.557 44.664ZM582.776 41.336C582.008 41.336 581.645 41.0587 581.688 40.504C581.901 39.4373 582.072 38.136 582.2 36.6C582.371 35.0213 582.456 33.5067 582.456 32.056C582.456 30.6053 582.328 29.368 582.072 28.344C581.859 27.2773 581.432 26.744 580.792 26.744C579.853 26.7013 579.384 26.5093 579.384 26.168C579.384 25.912 579.619 25.6773 580.088 25.464C580.728 25.1227 581.453 24.824 582.264 24.568C583.075 24.312 583.885 24.184 584.696 24.184C585.165 24.184 585.635 24.248 586.104 24.376C586.573 24.4613 587.021 24.632 587.448 24.888C587.96 25.1867 588.28 25.6347 588.408 26.232C588.579 26.8293 588.685 27.3627 588.728 27.832C588.813 28.344 588.856 28.6 588.856 28.6C588.941 28.6 589.027 28.4933 589.112 28.28C589.24 28.0667 589.347 27.896 589.432 27.768C590.328 26.4027 591.437 25.0587 592.76 23.736C594.125 22.3707 595.555 21.24 597.048 20.344C598.541 19.4053 599.885 18.936 601.08 18.936C602.403 18.936 603.384 19.3627 604.024 20.216C604.664 21.0693 604.984 21.88 604.984 22.648C604.984 23.6293 604.536 24.12 603.64 24.12C602.957 24.12 602.467 23.9493 602.168 23.608C601.912 23.224 601.635 22.8613 601.336 22.52C601.08 22.1787 600.632 22.008 599.992 22.008C598.883 22.008 597.752 22.4347 596.6 23.288C595.448 24.0987 594.467 24.9947 593.656 25.976C592.333 27.5547 591.224 29.432 590.328 31.608C589.475 33.7413 588.899 35.832 588.6 37.88C588.515 38.4773 588.109 39.0533 587.384 39.608C586.701 40.12 585.912 40.5467 585.016 40.888C584.163 41.1867 583.416 41.336 582.776 41.336ZM628.83 44.024C628.403 44.024 628.254 43.6187 628.382 42.808C628.595 41.5707 628.744 40.3333 628.83 39.096C628.958 37.816 629.022 36.7067 629.022 35.768C629.022 34.872 628.958 34.1467 628.83 33.592C628.744 32.9947 628.552 32.696 628.254 32.696C628.126 32.696 627.934 32.76 627.678 32.888C627.464 33.016 627.08 33.272 626.526 33.656C625.587 34.3387 624.371 35.0853 622.878 35.896C621.427 36.7067 619.848 37.5173 618.142 38.328C616.435 39.1387 614.771 39.9067 613.15 40.632C611.528 41.3573 610.078 42.0187 608.798 42.616C608.072 42.9147 607.24 43.064 606.302 43.064C605.235 43.064 604.254 42.8933 603.358 42.552C602.504 42.168 602.078 41.592 602.078 40.824C602.078 39.7573 602.462 38.328 603.23 36.536C603.998 34.744 605.171 32.8027 606.75 30.712C608.328 28.5787 610.291 26.5307 612.638 24.568C614.216 23.2453 615.88 22.2 617.63 21.432C619.379 20.664 621.278 20.28 623.326 20.28C624.392 20.28 625.523 20.408 626.718 20.664C627.912 20.92 628.915 21.3467 629.726 21.944C630.579 22.5413 631.006 23.3733 631.006 24.44C631.006 25.208 630.814 25.7627 630.43 26.104C630.088 26.4027 629.726 26.552 629.342 26.552C628.83 26.552 628.19 26.3387 627.422 25.912C626.696 25.4853 625.715 25.272 624.478 25.272C623.582 25.272 622.664 25.4213 621.726 25.72C620.787 25.976 619.742 26.424 618.59 27.064C616.627 28.1733 614.878 29.3893 613.342 30.712C611.806 31.992 610.59 33.2507 609.694 34.488C608.84 35.7253 608.414 36.792 608.414 37.688C608.414 38.328 608.627 38.84 609.054 39.224C609.523 39.608 610.099 39.8 610.782 39.8C611.848 39.8 613.086 39.48 614.494 38.84C615.902 38.1573 617.246 37.4747 618.526 36.792C621.171 35.384 623.176 34.1893 624.542 33.208C625.95 32.2267 627.016 31.4587 627.742 30.904C628.51 30.3067 629.235 29.9013 629.918 29.688C630.046 29.6453 630.28 29.624 630.622 29.624C631.304 29.624 632.051 29.7733 632.862 30.072C633.715 30.328 634.12 30.584 634.078 30.84C634.078 31.608 633.822 32.504 633.31 33.528C632.798 34.5093 632.371 35.6827 632.03 37.048C631.816 37.9867 631.667 38.84 631.582 39.608C631.539 40.3333 631.326 41.3147 630.942 42.552C630.899 42.7227 630.622 43 630.11 43.384C629.598 43.8107 629.171 44.024 628.83 44.024ZM638.852 43.832C638.34 43.832 637.892 43.4907 637.508 42.808C637.167 42.0827 636.889 41.272 636.676 40.376C636.463 39.4373 636.356 38.648 636.356 38.008C636.356 36.6 636.548 34.9573 636.932 33.08C637.359 31.2027 637.913 29.24 638.596 27.192C639.279 25.1013 640.025 23.0533 640.836 21.048C641.647 19.0427 642.479 17.1867 643.332 15.48C644.185 13.7307 644.953 12.3013 645.636 11.192C646.233 10.2107 647.087 9.54933 648.196 9.208C649.348 8.824 650.436 8.632 651.46 8.632C652.484 8.632 653.295 8.76 653.892 9.016C654.489 9.272 654.66 9.57066 654.404 9.912C653.081 11.6187 651.695 13.624 650.244 15.928C648.793 18.232 647.385 20.664 646.02 23.224C644.697 25.784 643.503 28.3227 642.436 30.84C641.412 33.3573 640.623 35.704 640.068 37.88C639.513 40.056 639.321 41.8693 639.492 43.32C639.492 43.6613 639.279 43.832 638.852 43.832Z" fill="white"/>
</svg>
